# xmcd
#
# Track frame offsets:
#       150
#       20985
#       42860
#       62828
#       77159
#       97114
#       128478
#       142353
#       156218
#       176541
#       192720
#
# Disc length: 2805 seconds
#
# Revision: 0
# Processed by: cddbd v1.5.2PL0 Copyright (c) Steve Scherf et al.
# Submitted via: WaveLab 6.10
#
DISCID=a30af30b
DTITLE=Nick Woodland - Cultfactory Vol.2 - The Goodburn Clearing House
DYEAR=2011
DGENRE=
TTITLE0=Road
TTITLE1=Way To My Heart
TTITLE2=Je Vais Devenir Fou
TTITLE3=Power
TTITLE4=No Other Woman
TTITLE5=Watching The Egyptians
TTITLE6=Chris And Ade
TTITLE7=On T.V.
TTITLE8=Likes Of You
TTITLE9=Rocket Coffee
TTITLE10=Not Soon Enough
EXTD=
EXTT0=
EXTT1=
EXTT2=
EXTT3=
EXTT4=
EXTT5=
EXTT6=
EXTT7=
EXTT8=
EXTT9=
EXTT10=
PLAYORDER=
